<svg id="Capa_1" enable-background="new 0 0 511.991 511.991" height="512" viewBox="0 0 511.991 511.991" width="512" xmlns="http://www.w3.org/2000/svg"><g><path d="m358.214 9.218c-11.484-4.757-24.641.693-29.398 12.177-.463 1.118-.826 2.256-1.104 3.396l-5.633 23.319 34.184 14.159 12.506-20.472c.61-1.003 1.158-2.064 1.621-3.182 4.758-11.483-.692-24.64-12.176-29.397z" fill="#ff4c50"/><path d="m357.613 45.424c1.809 4.44 1.925 9.543-.012 14.218-.371.896-.811 1.775-1.338 2.628l-12.083 19.792-19.515 8.152-8.035-19.564 5.451-22.54c.231-.976.541-1.908.913-2.804 3.877-9.359 14.752-14.109 24.453-10.09 4.849 2.009 8.354 5.777 10.166 10.208z" fill="#ff764c"/><path d="m153.777 9.218c-11.484 4.757-16.934 17.914-12.177 29.398.463 1.118 1.011 2.179 1.621 3.182l12.506 20.472 34.184-14.159-5.633-23.319c-.278-1.141-.641-2.278-1.104-3.396-4.756-11.485-17.913-16.935-29.397-12.178z" fill="#ff4c50"/><path d="m178.953 35.245c4.418 1.861 8.109 5.387 10.045 10.062.371.896.682 1.828.913 2.804l5.451 22.54-8.035 19.564-19.515-8.152-12.084-19.793c-.527-.853-.966-1.732-1.338-2.628-3.877-9.359.455-20.408 10.156-24.426 4.85-2.009 9.993-1.823 14.407.029z" fill="#ff764c"/><path d="m9.218 153.777c-4.757 11.484.693 24.641 12.177 29.398 1.118.463 2.256.826 3.396 1.104l23.319 5.633 14.159-34.184-20.472-12.506c-1.003-.61-2.064-1.158-3.182-1.621-11.483-4.758-24.64.692-29.397 12.176z" fill="#ff4c50"/><path d="m45.424 154.378c4.44-1.809 9.543-1.925 14.218.012.896.371 1.775.811 2.628 1.338l19.792 12.084 8.152 19.515-19.564 8.035-22.54-5.451c-.976-.231-1.908-.541-2.804-.913-9.359-3.877-14.109-14.752-10.09-24.453 2.009-4.85 5.777-8.354 10.208-10.167z" fill="#ff764c"/><path d="m9.218 358.214c4.757 11.484 17.914 16.934 29.398 12.177 1.118-.463 2.179-1.011 3.182-1.621l20.472-12.506-14.159-34.184-23.319 5.633c-1.141.278-2.278.641-3.396 1.104-11.485 4.756-16.935 17.913-12.178 29.397z" fill="#ff4c50"/><path d="m35.245 333.038c1.861-4.418 5.387-8.109 10.062-10.045.896-.371 1.828-.682 2.804-.913l22.54-5.451 19.564 8.035-8.152 19.515-19.793 12.085c-.853.527-1.732.966-2.628 1.338-9.359 3.877-20.408-.455-24.426-10.156-2.009-4.851-1.823-9.994.029-14.408z" fill="#ff764c"/><path d="m153.777 502.773c11.484 4.757 24.641-.693 29.398-12.177.463-1.118.826-2.256 1.104-3.396l5.633-23.319-34.184-14.159-12.506 20.472c-.61 1.003-1.158 2.064-1.621 3.182-4.758 11.483.692 24.64 12.176 29.397z" fill="#ff4c50"/><path d="m154.378 466.567c-1.809-4.44-1.925-9.543.012-14.218.371-.896.811-1.775 1.338-2.628l12.084-19.792 19.515-8.152 8.035 19.564-5.451 22.54c-.231.976-.541 1.908-.913 2.804-3.877 9.359-14.752 14.109-24.453 10.09-4.85-2.009-8.354-5.777-10.167-10.208z" fill="#ff764c"/><path d="m358.214 502.773c11.484-4.757 16.934-17.914 12.177-29.398-.463-1.118-1.011-2.179-1.621-3.182l-12.506-20.472-34.184 14.159 5.633 23.319c.278 1.141.641 2.278 1.104 3.396 4.756 11.485 17.913 16.935 29.397 12.178z" fill="#ff4c50"/><path d="m333.038 476.746c-4.418-1.861-8.109-5.387-10.045-10.062-.371-.896-.682-1.828-.913-2.804l-5.451-22.54 8.035-19.564 19.515 8.152 12.084 19.792c.527.853.966 1.732 1.338 2.628 3.877 9.359-.455 20.408-10.156 24.426-4.85 2.01-9.993 1.824-14.407-.028z" fill="#ff764c"/><path d="m502.773 358.214c4.757-11.484-.693-24.641-12.177-29.398-1.118-.463-2.256-.826-3.396-1.104l-23.319-5.633-14.159 34.184 20.472 12.506c1.003.61 2.064 1.158 3.182 1.621 11.483 4.758 24.64-.692 29.397-12.176z" fill="#ff4c50"/><path d="m466.567 357.613c-4.44 1.809-9.543 1.925-14.218-.012-.896-.371-1.775-.811-2.628-1.338l-19.792-12.084-8.152-19.515 19.564-8.035 22.54 5.451c.976.231 1.908.541 2.804.913 9.359 3.877 14.109 14.752 10.09 24.453-2.009 4.85-5.777 8.354-10.208 10.167z" fill="#ff764c"/><path d="m502.773 153.777c-4.757-11.484-17.914-16.934-29.398-12.177-1.118.463-2.179 1.011-3.182 1.621l-20.472 12.506 14.159 34.184 23.319-5.633c1.141-.278 2.278-.641 3.396-1.104 11.485-4.756 16.935-17.913 12.178-29.397z" fill="#ff4c50"/><path d="m476.746 178.953c-1.861 4.418-5.387 8.109-10.062 10.045-.896.371-1.828.682-2.804.913l-22.54 5.451-19.564-8.035 8.152-19.515 19.792-12.084c.853-.527 1.732-.966 2.628-1.338 9.359-3.877 20.408.455 24.426 10.156 2.01 4.85 1.824 9.993-.028 14.407z" fill="#ff764c"/><g fill="#ff4c50"><path d="m204.149 129.254h30v75.573h-30z" transform="matrix(.924 -.383 .383 .924 -47.242 96.58)"/><path d="m152.04 181.363h30v75.573h-30z" transform="matrix(.383 -.924 .924 .383 -99.351 289.609)"/><path d="m129.254 277.842h75.573v30h-75.573z" transform="matrix(.924 -.383 .383 .924 -99.351 86.215)"/><path d="m181.363 329.951h75.573v30h-75.573z" transform="matrix(.383 -.924 .924 .383 -183.409 415.411)"/><path d="m277.842 307.165h30v75.573h-30z" transform="matrix(.924 -.383 .383 .924 -109.716 138.324)"/><path d="m329.951 255.056h30v75.573h-30z" transform="matrix(.383 -.924 .924 .383 -57.607 499.469)"/><path d="m307.165 204.149h75.573v30h-75.573z" transform="matrix(.924 -.383 .383 .924 -57.607 148.689)"/><path d="m255.056 152.04h75.573v30h-75.573z" transform="matrix(.383 -.924 .924 .383 26.451 373.667)"/></g><circle cx="255.995" cy="255.996" fill="#ffd17e" r="75"/><path d="m255.996 210.996v90c24.853 0 45-20.147 45-45s-20.148-45-45-45z" fill="#ff764c"/><path d="m270.996 255.996c0-24.853-6.716-45-15-45-24.853 0-45 20.147-45 45s20.147 45 45 45c8.284 0 15-20.148 15-45z" fill="#ff9a42"/><path d="m255.995 60.995c-107.696 0-195 87.304-195 195s87.304 195 195 195 195-87.305 195-195-87.304-195-195-195zm0 330c-74.559 0-135-60.442-135-135s60.441-135 135-135 135 60.442 135 135c0 74.559-60.441 135-135 135z" fill="#ff9a42"/><path d="m255.995 105.995c-82.843 0-150 67.157-150 150s67.157 150 150 150 150-67.157 150-150-67.157-150-150-150zm0 270c-66.274 0-120-53.726-120-120s53.726-120 120-120 120 53.726 120 120-53.725 120-120 120z" fill="#ffd17e"/><path d="m255.995 383.496c70.304 0 127.5-57.196 127.5-127.5s-57.196-127.5-127.5-127.5-127.5 57.196-127.5 127.5 57.197 127.5 127.5 127.5zm-112.5-127.5c0-7.315.71-14.467 2.05-21.396l28.528 11.816c-.366 3.146-.574 6.338-.574 9.58s.208 6.434.574 9.58l-28.528 11.817c-1.339-6.93-2.05-14.082-2.05-21.397zm74.143-73.003-11.521-27.815c4.459-2.215 9.081-4.15 13.849-5.766l11.517 27.805c-4.822 1.504-9.446 3.455-13.845 5.776zm38.357 5.507c37.218 0 67.496 30.278 67.496 67.496s-30.278 67.496-67.496 67.496-67.496-30.278-67.496-67.496 30.279-67.496 67.496-67.496zm24.513-11.282 11.517-27.805c4.768 1.616 9.39 3.551 13.848 5.766l-11.521 27.814c-4.399-2.321-9.022-4.272-13.844-5.775zm87.987 78.778c0 7.315-.71 14.467-2.05 21.396l-28.528-11.816c.366-3.146.574-6.338.574-9.58s-.208-6.434-.574-9.58l28.528-11.817c1.34 6.93 2.05 14.082 2.05 21.397zm-33.721 24.513 27.805 11.517c-1.616 4.768-3.551 9.39-5.766 13.849l-27.814-11.522c2.32-4.399 4.271-9.023 5.775-13.844zm0-49.026c-1.503-4.822-3.454-9.445-5.775-13.844l27.814-11.521c2.215 4.459 4.15 9.08 5.766 13.849zm-40.421 97.516 11.521 27.815c-4.459 2.215-9.081 4.15-13.849 5.766l-11.517-27.805c4.822-1.504 9.445-3.455 13.845-5.776zm-62.87 5.775-11.517 27.805c-4.768-1.616-9.39-3.551-13.848-5.766l11.521-27.814c4.399 2.321 9.022 4.272 13.844 5.775zm-48.491-40.421-27.814 11.521c-2.215-4.459-4.15-9.08-5.766-13.849l27.805-11.517c1.504 4.822 3.455 9.446 5.775 13.845zm-5.775-62.87-27.805-11.517c1.616-4.768 3.551-9.39 5.766-13.849l27.814 11.522c-2.32 4.399-4.271 9.022-5.775 13.844zm-14.413 87.468 28.53-11.818c3.973 5.013 8.512 9.552 13.525 13.525l-11.818 28.529c-11.897-8.062-22.175-18.34-30.237-30.236zm71.795 47.495 11.816-28.528c3.146.366 6.338.574 9.58.574s6.435-.209 9.58-.574l11.817 28.528c-6.93 1.34-14.081 2.05-21.396 2.05-7.316 0-14.467-.71-21.397-2.05zm84.352-17.258-11.818-28.529c5.013-3.973 9.552-8.512 13.525-13.525l28.529 11.818c-8.062 11.895-18.34 22.173-30.236 30.236zm30.236-156.147-28.53 11.818c-3.973-5.013-8.512-9.552-13.525-13.525l11.818-28.529c11.897 8.062 22.175 18.339 30.237 30.236zm-71.795-47.495-11.816 28.528c-3.146-.366-6.338-.574-9.58-.574s-6.435.209-9.58.574l-11.817-28.528c6.93-1.34 14.081-2.05 21.396-2.05 7.316 0 14.467.71 21.397 2.05zm-84.352 17.258 11.818 28.529c-5.013 3.973-9.552 8.512-13.525 13.525l-28.529-11.818c8.062-11.895 18.34-22.174 30.236-30.236z"/><path d="m98.495 255.996c0 86.846 70.654 157.5 157.5 157.5s157.5-70.654 157.5-157.5-70.654-157.5-157.5-157.5-157.5 70.654-157.5 157.5zm157.5-142.5c78.575 0 142.5 63.925 142.5 142.5s-63.925 142.5-142.5 142.5-142.5-63.925-142.5-142.5 63.925-142.5 142.5-142.5z"/><path d="m493.466 321.887c-1.458-.604-2.981-1.096-4.508-1.461l-38.115-9.215c4.983-17.559 7.652-36.081 7.652-55.215s-2.669-37.656-7.652-55.215l38.095-9.21c1.55-.37 3.074-.864 4.532-1.469 15.282-6.329 22.565-23.913 16.235-39.196-3.066-7.403-8.833-13.169-16.235-16.236-7.404-3.066-15.559-3.067-22.961.001-1.454.602-2.88 1.33-4.226 2.155l-33.528 20.472c-18.309-32.66-45.402-59.753-78.062-78.062l20.463-33.514c.834-1.359 1.563-2.785 2.165-4.239 6.329-15.282-.954-32.866-16.236-39.197-15.284-6.331-32.868.954-39.199 16.241-.604 1.458-1.096 2.981-1.461 4.508l-9.215 38.115c-17.559-4.983-36.081-7.652-55.215-7.652-18.955 0-37.425 2.545-55.23 7.593l-9.195-38.036c-.37-1.55-.864-3.074-1.469-4.532-6.328-15.282-23.913-22.566-39.196-16.235s-22.566 23.914-16.235 39.196c.602 1.454 1.33 2.88 2.155 4.226l24.573 40.243c2.041 3.343 6.31 4.553 9.799 2.778 8.32-4.228 16.851-7.799 25.563-10.708.121-.022.243-.049.364-.078.522-.126 1.019-.305 1.484-.527 18.399-5.928 37.604-8.919 57.387-8.919 103.388 0 187.5 84.112 187.5 187.5s-84.112 187.5-187.5 187.5-187.5-84.112-187.5-187.5c0-60.139 29.184-117.058 78.067-152.258 3.361-2.42 4.124-7.107 1.703-10.469-2.42-3.36-7.107-4.123-10.469-1.703-24.017 17.294-44.192 39.925-58.626 65.692l-33.45-20.427c-1.359-.834-2.785-1.563-4.239-2.165-15.28-6.328-32.865.954-39.197 16.236-6.329 15.283.954 32.867 16.241 39.199 1.458.604 2.981 1.096 4.508 1.461l38.136 9.22c-5.054 17.899-7.673 36.519-7.673 55.21 0 19.134 2.669 37.656 7.652 55.215l-38.095 9.21c-1.55.37-3.074.864-4.532 1.469-15.283 6.331-22.567 23.914-16.236 39.198 3.066 7.403 8.833 13.169 16.235 16.236 3.702 1.533 7.591 2.3 11.48 2.3s7.779-.767 11.48-2.301c1.454-.602 2.88-1.33 4.226-2.155l33.528-20.472c18.309 32.66 45.402 59.753 78.062 78.062l-20.463 33.514c-.834 1.359-1.563 2.785-2.165 4.239-6.329 15.282.954 32.866 16.236 39.197 3.742 1.55 7.621 2.283 11.44 2.283 11.778 0 22.978-6.98 27.759-18.524.604-1.458 1.096-2.981 1.461-4.508l9.215-38.115c17.559 4.983 36.081 7.652 55.215 7.652s37.656-2.669 55.215-7.652l9.21 38.095c.37 1.55.864 3.074 1.469 4.532 4.779 11.541 15.976 18.521 27.755 18.52 3.818 0 7.7-.734 11.441-2.284 7.403-3.066 13.169-8.833 16.236-16.235 3.066-7.403 3.066-15.558-.001-22.961-.602-1.454-1.33-2.88-2.155-4.226l-20.472-33.528c32.66-18.309 59.753-45.402 78.062-78.062l33.514 20.463c1.359.834 2.785 1.563 4.239 2.165 3.742 1.55 7.621 2.283 11.44 2.283 11.777-.001 22.976-6.979 27.757-18.52 6.332-15.282-.951-32.865-16.238-39.198zm-322.819-249.574-21.028-34.437c-.423-.689-.79-1.408-1.092-2.136-3.165-7.641.477-16.433 8.118-19.598 1.851-.768 3.795-1.15 5.74-1.15 1.944 0 3.89.384 5.74 1.15 3.702 1.533 6.585 4.416 8.118 8.117.302.729.55 1.496.741 2.298l9.473 39.178c-5.337 1.96-10.611 4.153-15.81 6.578zm164.364-45.774c.187-.783.435-1.551.735-2.278 3.165-7.642 11.956-11.28 19.6-8.118 7.641 3.166 11.282 11.958 8.118 19.599-.302.728-.669 1.446-1.101 2.149l-21.054 34.482c-5.152-2.403-10.414-4.609-15.789-6.579zm-308.473 150.441c-.783-.187-1.551-.435-2.278-.735-7.641-3.166-11.282-11.958-8.118-19.6 3.165-7.642 11.956-11.28 19.599-8.118.728.302 1.446.669 2.149 1.101l34.447 21.033c-2.403 5.173-4.584 10.449-6.539 15.811zm11.338 185.393c-.689.423-1.408.79-2.136 1.092-3.703 1.533-7.779 1.533-11.48 0s-6.584-4.417-8.117-8.118c-1.534-3.701-1.533-7.779 0-11.48 1.533-3.702 4.416-6.585 8.117-8.118.729-.302 1.496-.55 2.298-.741l39.235-9.486c1.971 5.375 4.176 10.637 6.579 15.789zm139.104 123.08c-.187.783-.435 1.551-.735 2.278-3.165 7.642-11.956 11.281-19.6 8.118-7.641-3.166-11.282-11.958-8.118-19.599.302-.728.669-1.446 1.101-2.149l21.054-34.482c5.152 2.403 10.414 4.608 15.789 6.579zm185.392-11.338c.423.689.79 1.408 1.092 2.136 1.533 3.702 1.533 7.778 0 11.48-1.533 3.701-4.417 6.584-8.118 8.117-3.7 1.533-7.778 1.533-11.48 0s-6.585-4.416-8.118-8.117c-.302-.729-.55-1.496-.741-2.298l-9.486-39.235c5.375-1.971 10.637-4.176 15.789-6.579zm111.743-324.496c.689-.423 1.408-.79 2.136-1.092 3.703-1.533 7.779-1.533 11.48 0s6.584 4.417 8.117 8.118c1.534 3.701 1.533 7.779 0 11.48-1.533 3.702-4.416 6.585-8.117 8.118-.729.302-1.496.55-2.298.741l-39.235 9.486c-1.971-5.375-4.176-10.637-6.579-15.789zm21.734 205.727c-3.165 7.642-11.954 11.281-19.599 8.118-.728-.302-1.446-.669-2.149-1.101l-34.482-21.055c2.403-5.152 4.608-10.414 6.579-15.789l39.254 9.491c.783.187 1.551.435 2.278.735 7.641 3.168 11.283 11.96 8.119 19.601z"/><path d="m255.995 308.496c28.948 0 52.5-23.552 52.5-52.5s-23.552-52.5-52.5-52.5-52.5 23.552-52.5 52.5 23.552 52.5 52.5 52.5zm0-90c20.678 0 37.5 16.822 37.5 37.5s-16.822 37.5-37.5 37.5-37.5-16.822-37.5-37.5 16.823-37.5 37.5-37.5z"/></g></svg>